<svg width="1372" height="1325" viewBox="0 0 1372 1325" fill="none" xmlns="http://www.w3.org/2000/svg">
<path d="M-12.5735 1345.95C62.2929 1424.67 127.758 1383.71 170.116 1336.74C212.473 1289.77 310.201 1228.27 384.354 1364.37C458.507 1500.47 615.295 1499.52 699.676 1437.81C784.057 1376.09 847.711 1356.58 957.028 1368.16C1066.35 1379.74 1316.67 1549.78 1422.97 1518.12" stroke="#F0F3F5" stroke-opacity="0.29" stroke-width="4"/>
<path d="M-12.5735 1258.43C62.2929 1337.16 127.758 1296.19 170.116 1249.23C212.473 1202.26 310.201 1140.75 384.354 1276.86C458.507 1412.96 615.295 1412.01 699.676 1350.29C784.057 1288.58 847.711 1269.06 957.028 1280.65C1066.35 1292.23 1316.67 1462.27 1422.97 1430.6" stroke="#F0F3F5" stroke-opacity="0.29" stroke-width="4"/>
<path d="M-12.5735 1170.92C62.2929 1249.64 127.758 1208.68 170.116 1161.71C212.473 1114.74 310.201 1053.24 384.354 1189.34C458.507 1325.44 615.295 1324.49 699.676 1262.78C784.057 1201.06 847.711 1181.55 957.028 1193.13C1066.35 1204.71 1316.67 1374.75 1422.97 1343.09" stroke="#F0F3F5" stroke-opacity="0.29" stroke-width="4"/>
<path d="M-12.5735 1083.4C62.2929 1162.13 127.758 1121.16 170.116 1074.2C212.473 1027.23 310.201 965.722 384.354 1101.83C458.507 1237.93 615.295 1236.97 699.676 1175.26C784.057 1113.55 847.711 1094.03 957.028 1105.61C1066.35 1117.2 1316.67 1287.24 1422.97 1255.57" stroke="#F0F3F5" stroke-opacity="0.29" stroke-width="4"/>
<path d="M-12.5735 995.888C62.2929 1074.61 127.758 1033.65 170.116 986.68C212.473 939.712 310.201 878.207 384.354 1014.31C458.507 1150.41 615.295 1149.46 699.676 1087.75C784.057 1026.03 847.711 1006.52 957.028 1018.1C1066.35 1029.68 1316.67 1199.72 1422.97 1168.06" stroke="#F0F3F5" stroke-opacity="0.29" stroke-width="4"/>
<path d="M-12.5735 908.372C62.2929 987.095 127.758 946.132 170.116 899.164C212.473 852.197 310.201 790.691 384.354 926.794C458.507 1062.9 615.295 1061.94 699.676 1000.23C784.057 938.516 847.711 919 957.028 930.584C1066.35 942.167 1316.67 1112.2 1422.97 1080.54" stroke="#F0F3F5" stroke-opacity="0.29" stroke-width="4"/>
<path d="M-12.5735 820.857C62.2929 899.58 127.758 858.617 170.116 811.649C212.473 764.681 310.201 703.176 384.354 839.279C458.507 975.382 615.295 974.429 699.676 912.715C784.057 851.001 847.711 831.485 957.028 843.068C1066.35 854.651 1316.67 1024.69 1422.97 993.026" stroke="#F0F3F5" stroke-opacity="0.29" stroke-width="4"/>
<path d="M-12.5735 733.342C62.2929 812.064 127.758 771.101 170.116 724.134C212.473 677.166 310.201 615.661 384.354 751.764C458.507 887.866 615.295 886.913 699.676 825.199C784.057 763.485 847.711 743.97 957.028 755.553C1066.35 767.136 1316.67 937.174 1422.97 905.511" stroke="#F0F3F5" stroke-opacity="0.29" stroke-width="4"/>
<path d="M-12.5735 645.826C62.2929 724.549 127.758 683.586 170.116 636.618C212.473 589.65 310.201 528.145 384.354 664.248C458.507 800.351 615.295 799.398 699.676 737.684C784.057 675.97 847.711 656.454 957.028 668.037C1066.35 679.621 1316.67 849.659 1422.97 817.995" stroke="#F0F3F5" stroke-opacity="0.29" stroke-width="4"/>
<path d="M-12.5735 558.311C62.2929 637.034 127.758 596.071 170.116 549.103C212.473 502.135 310.201 440.63 384.354 576.733C458.507 712.836 615.295 711.882 699.676 650.169C784.057 588.455 847.711 568.939 957.028 580.522C1066.35 592.105 1316.67 762.143 1422.97 730.48" stroke="#F0F3F5" stroke-opacity="0.29" stroke-width="4"/>
<path d="M-12.5735 470.796C62.2929 549.518 127.758 508.555 170.116 461.588C212.473 414.62 310.201 353.115 384.354 489.218C458.507 625.32 615.295 624.367 699.676 562.653C784.057 500.939 847.711 481.424 957.028 493.007C1066.35 504.59 1316.67 674.628 1422.97 642.964" stroke="#F0F3F5" stroke-opacity="0.29" stroke-width="4"/>
<path d="M-12.5735 383.28C62.2929 462.003 127.758 421.04 170.116 374.072C212.473 327.104 310.201 265.599 384.354 401.702C458.507 537.805 615.295 536.852 699.676 475.138C784.057 413.424 847.711 393.908 957.028 405.491C1066.35 417.075 1316.67 587.113 1422.97 555.449" stroke="#F0F3F5" stroke-opacity="0.29" stroke-width="4"/>
<path d="M-12.5735 295.765C62.2929 374.488 127.758 333.525 170.116 286.557C212.473 239.589 310.201 178.084 384.354 314.187C458.507 450.29 615.295 449.336 699.676 387.623C784.057 325.909 847.711 306.393 957.028 317.976C1066.35 329.559 1316.67 499.597 1422.97 467.934" stroke="#F0F3F5" stroke-opacity="0.29" stroke-width="4"/>
<path d="M-12.5735 208.25C62.2929 286.972 127.758 246.009 170.116 199.042C212.473 152.074 310.201 90.5687 384.354 226.672C458.507 362.774 615.295 361.821 699.676 300.107C784.057 238.393 847.711 218.878 957.028 230.461C1066.35 242.044 1316.67 412.082 1422.97 380.419" stroke="#F0F3F5" stroke-opacity="0.29" stroke-width="4"/>
<path d="M-12.5735 120.734C62.2929 199.457 127.758 158.494 170.116 111.526C212.473 64.5584 310.201 3.05337 384.354 139.156C458.507 275.259 615.295 274.306 699.676 212.592C784.057 150.878 847.711 131.362 957.028 142.945C1066.35 154.529 1316.67 324.567 1422.97 292.903" stroke="#F0F3F5" stroke-opacity="0.29" stroke-width="4"/>
<path d="M-12.5735 33.2189C62.2929 111.942 127.758 70.9787 170.116 24.0109C212.473 -22.957 310.201 -84.462 384.354 51.6409C458.507 187.744 615.295 186.79 699.676 125.077C784.057 63.3628 847.711 43.8469 957.028 55.4301C1066.35 67.0133 1316.67 237.051 1422.97 205.388" stroke="#F0F3F5" stroke-opacity="0.29" stroke-width="4"/>
<path d="M-12.5735 -54.2964C62.2929 24.4264 127.758 -16.5366 170.116 -63.5044C212.473 -110.472 310.201 -171.977 384.354 -35.8744C458.507 100.228 615.295 99.2751 699.676 37.5613C784.057 -24.1526 847.711 -43.6684 957.028 -32.0852C1066.35 -20.5021 1316.67 149.536 1422.97 117.873" stroke="#F0F3F5" stroke-opacity="0.29" stroke-width="4"/>
<path d="M-12.5735 -141.812C62.2931 -63.0893 127.758 -104.052 170.116 -151.02C212.474 -197.988 310.202 -259.493 384.355 -123.39C458.508 12.7129 615.296 11.7596 699.677 -49.9542C784.058 -111.668 847.712 -131.184 957.03 -119.601C1066.35 -108.017 1316.67 62.0207 1422.97 30.3572" stroke="#F0F3F5" stroke-opacity="0.29" stroke-width="4"/>
</svg>
